<svg width="32" height="32" viewBox="0 0 32 32" fill="none" xmlns="http://www.w3.org/2000/svg">
<rect width="32" height="32" rx="5.71429" fill="#F2EFFB"/>
<path d="M21 21.7165H20.3667C19.7 21.7165 19.0667 21.9748 18.6 22.4414L17.175 23.8498C16.525 24.4914 15.4667 24.4914 14.8167 23.8498L13.3917 22.4414C12.925 21.9748 12.2833 21.7165 11.625 21.7165H11C9.61667 21.7165 8.5 20.6081 8.5 19.2415V10.1498C8.5 8.78311 9.61667 7.6748 11 7.6748H21C22.3833 7.6748 23.5 8.78311 23.5 10.1498V19.2415C23.5 20.5998 22.3833 21.7165 21 21.7165Z" stroke="#7F60D2" stroke-width="1.5" stroke-miterlimit="10" stroke-linecap="round" stroke-linejoin="round"/>
<path opacity="0.4" d="M16 14.3335C17.0724 14.3335 17.9417 13.4642 17.9417 12.3918C17.9417 11.3195 17.0724 10.4502 16 10.4502C14.9277 10.4502 14.0583 11.3195 14.0583 12.3918C14.0583 13.4642 14.9277 14.3335 16 14.3335Z" stroke="#7F60D2" stroke-width="1.5" stroke-linecap="round" stroke-linejoin="round"/>
<path opacity="0.4" d="M19.3334 19.0501C19.3334 17.5501 17.8417 16.3335 16.0001 16.3335C14.1584 16.3335 12.6667 17.5501 12.6667 19.0501" stroke="#7F60D2" stroke-width="1.5" stroke-linecap="round" stroke-linejoin="round"/>
</svg>
