<svg width="32" height="32" viewBox="0 0 32 32" fill="none" xmlns="http://www.w3.org/2000/svg">
<rect width="32" height="32" rx="5.71429" fill="#E4EAEF"/>
<g opacity="0.4">
<path d="M14.9585 20.0498V21.7415C14.9585 23.1748 13.6251 24.3332 11.9835 24.3332C10.3418 24.3332 9.00012 23.1748 9.00012 21.7415V20.0498C9.00012 21.4831 10.3335 22.4998 11.9835 22.4998C13.6251 22.4998 14.9585 21.4748 14.9585 20.0498Z" stroke="#010102" stroke-width="1.5" stroke-linecap="round" stroke-linejoin="round"/>
<path d="M14.9582 17.7581C14.9582 18.1748 14.8416 18.5581 14.6416 18.8914C14.1499 19.6998 13.1415 20.2081 11.9749 20.2081C10.8082 20.2081 9.79986 19.6914 9.3082 18.8914C9.1082 18.5581 8.99158 18.1748 8.99158 17.7581C8.99158 17.0415 9.32489 16.3998 9.85823 15.9331C10.3999 15.4581 11.1415 15.1748 11.9665 15.1748C12.7915 15.1748 13.5332 15.4664 14.0749 15.9331C14.6249 16.3914 14.9582 17.0415 14.9582 17.7581Z" stroke="#010102" stroke-width="1.5" stroke-linecap="round" stroke-linejoin="round"/>
<path d="M14.9585 17.7582V20.0498C14.9585 21.4832 13.6251 22.4998 11.9835 22.4998C10.3418 22.4998 9.00012 21.4748 9.00012 20.0498V17.7582C9.00012 16.3248 10.3335 15.1665 11.9835 15.1665C12.8085 15.1665 13.5502 15.4581 14.0918 15.9248C14.6252 16.3915 14.9585 17.0415 14.9585 17.7582Z" stroke="#010102" stroke-width="1.5" stroke-linecap="round" stroke-linejoin="round"/>
</g>
<path d="M24.3333 15.1415V16.8582C24.3333 17.3165 23.9667 17.6915 23.5 17.7082H21.8667C20.9667 17.7082 20.1417 17.0498 20.0667 16.1498C20.0167 15.6248 20.2167 15.1332 20.5667 14.7915C20.875 14.4748 21.3 14.2915 21.7667 14.2915H23.5C23.9667 14.3082 24.3333 14.6831 24.3333 15.1415Z" stroke="#010102" stroke-width="1.5" stroke-linecap="round" stroke-linejoin="round"/>
<path d="M7.66663 14.7498V13.0832C7.66663 10.8165 9.03329 9.23317 11.1583 8.9665C11.375 8.93317 11.6 8.9165 11.8333 8.9165H19.3333C19.55 8.9165 19.7583 8.92483 19.9583 8.95816C22.1083 9.20816 23.5 10.7998 23.5 13.0832V14.2915H21.7666C21.2999 14.2915 20.8749 14.4748 20.5666 14.7915C20.2166 15.1332 20.0166 15.6248 20.0666 16.1498C20.1416 17.0498 20.9666 17.7082 21.8666 17.7082H23.5V18.9165C23.5 21.4165 21.8333 23.0832 19.3333 23.0832H17.25" stroke="#010102" stroke-width="1.5" stroke-linecap="round" stroke-linejoin="round"/>
</svg>
