<svg width="24" height="24" viewBox="0 0 24 24" fill="none" xmlns="http://www.w3.org/2000/svg">
<path opacity="0.4" d="M15.48 3H7.52C4.07 3 2 5.06 2 8.52V16.47C2 19.94 4.07 22 7.52 22H15.47C18.93 22 20.99 19.94 20.99 16.48V8.52C21 5.06 18.93 3 15.48 3Z" fill="#292D32"/>
<path d="M21.02 2.98028C19.23 1.18028 17.48 1.14028 15.64 2.98028L14.51 4.10028C14.41 4.20028 14.38 4.34028 14.42 4.47028C15.12 6.92028 17.08 8.88028 19.53 9.58028C19.56 9.59028 19.61 9.59028 19.64 9.59028C19.74 9.59028 19.84 9.55028 19.91 9.48028L21.02 8.36028C21.93 7.45028 22.38 6.58028 22.38 5.69028C22.38 4.79028 21.93 3.90028 21.02 2.98028Z" fill="#292D32"/>
<path d="M17.86 10.4198C17.59 10.2898 17.33 10.1598 17.09 10.0098C16.89 9.88984 16.69 9.75984 16.5 9.61984C16.34 9.51984 16.16 9.36984 15.98 9.21984C15.96 9.20984 15.9 9.15984 15.82 9.07984C15.51 8.82984 15.18 8.48984 14.87 8.11984C14.85 8.09984 14.79 8.03984 14.74 7.94984C14.64 7.83984 14.49 7.64984 14.36 7.43984C14.25 7.29984 14.12 7.09984 14 6.88984C13.85 6.63984 13.72 6.38984 13.6 6.12984C13.47 5.84984 13.37 5.58984 13.28 5.33984L7.9 10.7198C7.55 11.0698 7.21 11.7298 7.14 12.2198L6.71 15.1998C6.62 15.8298 6.79 16.4198 7.18 16.8098C7.51 17.1398 7.96 17.3098 8.46 17.3098C8.57 17.3098 8.68 17.2998 8.79 17.2898L11.76 16.8698C12.25 16.7998 12.91 16.4698 13.26 16.1098L18.64 10.7298C18.39 10.6498 18.14 10.5398 17.86 10.4198Z" fill="#292D32"/>
</svg>
