<svg width="32" height="32" viewBox="0 0 32 32" fill="none" xmlns="http://www.w3.org/2000/svg">
<rect width="32" height="32" rx="5.71429" fill="#FFE6E9"/>
<path d="M13.6334 15.0582C13.55 15.0498 13.45 15.0498 13.3584 15.0582C11.375 14.9915 9.80005 13.3665 9.80005 11.3665C9.80005 9.32484 11.45 7.6665 13.5 7.6665C15.5417 7.6665 17.2 9.32484 17.2 11.3665C17.1917 13.3665 15.6167 14.9915 13.6334 15.0582Z" stroke="#FF6678" stroke-width="1.5" stroke-linecap="round" stroke-linejoin="round"/>
<path opacity="0.4" d="M19.675 9.3335C21.2916 9.3335 22.5917 10.6418 22.5917 12.2502C22.5917 13.8252 21.3417 15.1085 19.7833 15.1668C19.7167 15.1585 19.6417 15.1585 19.5667 15.1668" stroke="#FF6678" stroke-width="1.5" stroke-linecap="round" stroke-linejoin="round"/>
<path d="M9.4666 18.1335C7.44993 19.4835 7.44993 21.6835 9.4666 23.0252C11.7583 24.5585 15.5166 24.5585 17.8083 23.0252C19.8249 21.6752 19.8249 19.4752 17.8083 18.1335C15.5249 16.6085 11.7666 16.6085 9.4666 18.1335Z" stroke="#FF6678" stroke-width="1.5" stroke-linecap="round" stroke-linejoin="round"/>
<path opacity="0.4" d="M21.2834 22.6665C21.8834 22.5415 22.4501 22.2998 22.9168 21.9415C24.2168 20.9665 24.2168 19.3582 22.9168 18.3832C22.4584 18.0332 21.9001 17.7998 21.3084 17.6665" stroke="#FF6678" stroke-width="1.5" stroke-linecap="round" stroke-linejoin="round"/>
</svg>
