<svg width="32" height="32" viewBox="0 0 32 32" fill="none" xmlns="http://www.w3.org/2000/svg">
<rect width="32" height="32" rx="5.71429" fill="#E6F8EC"/>
<path d="M8.6416 12.2002L15.9999 16.4585L23.3083 12.2252" stroke="#28A250" stroke-width="1.5" stroke-linecap="round" stroke-linejoin="round"/>
<path d="M16 24.008V16.4497" stroke="#28A250" stroke-width="1.5" stroke-linecap="round" stroke-linejoin="round"/>
<path d="M14.275 8.06658L9.82503 10.5332C8.8167 11.0916 7.9917 12.4916 7.9917 13.6416V18.3499C7.9917 19.4999 8.8167 20.8999 9.82503 21.4582L14.275 23.9332C15.225 24.4582 16.7834 24.4582 17.7334 23.9332L22.1834 21.4582C23.1917 20.8999 24.0167 19.4999 24.0167 18.3499V13.6416C24.0167 12.4916 23.1917 11.0916 22.1834 10.5332L17.7334 8.05824C16.775 7.53324 15.225 7.53324 14.275 8.06658Z" stroke="#28A250" stroke-width="1.5" stroke-linecap="round" stroke-linejoin="round"/>
</svg>
